<svg width="28" height="28" viewBox="0 0 28 28" fill="none" xmlns="http://www.w3.org/2000/svg">
<path fill-rule="evenodd" clip-rule="evenodd" d="M25.9002 6.65073C26.2344 6.84455 26.44 7.20162 26.44 7.5879L26.4396 11.3066C26.4395 11.6899 26.2369 12.0447 25.9067 12.2395L22.6916 14.1362L25.9094 16.0449C26.2383 16.24 26.44 16.5941 26.44 16.9766V20.6864C26.44 21.0743 26.2326 21.4327 25.8961 21.6258L15.6128 27.5294C14.6148 28.1023 13.387 28.0996 12.3914 27.5223L2.09765 21.5528C1.7635 21.359 1.55781 21.002 1.55781 20.6157V7.58789C1.55781 7.20162 1.76349 6.84457 2.09764 6.65079L13.049 0.299736C13.6372 -0.0413849 14.363 -0.0413542 14.9512 0.299815L25.9002 6.65073ZM3.08936 20.3607C2.9078 20.4649 2.90801 20.7268 3.08974 20.8307L13.0565 26.5279C13.641 26.8619 14.3587 26.861 14.9423 26.5254L24.821 20.8447C25.0017 20.7408 25.0022 20.4802 24.8218 20.3756L14.9425 14.6505C14.3571 14.3112 13.6353 14.3097 13.0485 14.6464L3.08936 20.3607ZM5.55497 9.75456C5.3906 9.85215 5.28984 10.0292 5.28984 10.2203V13.6284C5.28984 13.8379 5.51738 13.968 5.69791 13.8619L13.0363 9.54766C13.631 9.19804 14.3687 9.19907 14.9624 9.55035L21.2322 13.26C21.4021 13.3605 21.6131 13.3607 21.7831 13.2604L24.8318 11.4632C25.0105 11.3579 25.0093 11.0991 24.8297 10.9954L14.9614 5.29588C14.3677 4.95297 13.6351 4.95738 13.0455 5.3074L5.55497 9.75456Z" fill="white"/>
</svg>
