<svg width="28" height="28" viewBox="0 0 28 28" fill="none" xmlns="http://www.w3.org/2000/svg">
<path fill-rule="evenodd" clip-rule="evenodd" d="M12.3428 0.468443C13.3139 -0.0982146 14.5153 -0.0984244 15.4863 0.468443L25.7051 6.43426C26.1063 6.66852 26.3535 7.09853 26.3535 7.56317V11.9008C26.3534 12.1325 26.2301 12.347 26.0303 12.4642L23.8356 13.8389L25.7109 14.8737C26.1088 15.1088 26.3534 15.5366 26.3535 15.9987V20.4352C26.3535 20.8999 26.1063 21.3298 25.7051 21.5641L15.4834 27.53C14.5123 28.0967 13.3119 28.0968 12.3408 27.53L2.11914 21.5641C1.71803 21.3298 1.47168 20.8998 1.47168 20.4352V7.56317C1.47178 7.09851 1.71879 6.66848 2.12012 6.43426L12.3428 0.468443ZM14.7002 1.77118C14.2147 1.4878 13.6144 1.48791 13.1289 1.77118L3.18164 7.57587C3.06086 7.64635 2.98649 7.77589 2.98633 7.91571V20.0085L12.873 14.3005C13.5161 13.9292 14.3091 13.9292 14.9521 14.3005L24.8389 20.0095V16.3513C24.8388 16.2116 24.764 16.082 24.6436 16.0114L14.6982 10.197C14.2129 9.91323 13.6117 9.91297 13.126 10.196L6.38477 14.1247C6.13553 14.2695 5.82263 14.0897 5.82227 13.8015V10.3942C5.82238 10.188 5.93134 9.99713 6.1084 9.89129L12.8613 5.85614C13.5101 5.46859 14.3183 5.4637 14.9717 5.84344L24.8389 11.5788V7.91571C24.8387 7.77604 24.7641 7.64643 24.6436 7.57587L14.7002 1.77118Z" fill="#111118"/>
</svg>
