<svg id="svg" version="1.1" viewBox="0 0 300 300" width="300" height="300" xmlns="http://www.w3.org/2000/svg"><svg xmlns="http://www.w3.org/2000/svg"><defs><clipPath id="clip-1"><rect x="0" y="0" transform="scale(0.14648,0.14648)" width="2048" height="2048" fill="none"/></clipPath><linearGradient x1="116.86421" y1="182.01563" x2="127.41328" y2="203.47412" gradientUnits="userSpaceOnUse" id="color-1"><stop offset="0" stop-color="#432e30"/><stop offset="1" stop-color="#634237"/></linearGradient><linearGradient x1="251.63965" y1="192.42334" x2="253.83691" y2="193.64063" gradientUnits="userSpaceOnUse" id="color-2"><stop offset="0" stop-color="#ca8d8d"/><stop offset="1" stop-color="#be95a4"/></linearGradient></defs><g clip-path="url(#clip-1)" fill="none" fill-rule="nonzero" stroke="none" stroke-width="1" stroke-linecap="butt" stroke-linejoin="miter" stroke-miterlimit="10" stroke-dasharray="" stroke-dashoffset="0" font-family="none" font-weight="none" font-size="none" text-anchor="none" style="mix-blend-mode: normal"><path d="M174.94775,0h0.33984c0.67822,0.14169 2.14307,0.49383 2.59863,0.94189c5.44336,5.36337 11.69385,18.33311 12.86865,25.52813c0.23438,-1.89492 0.41895,-3.81211 0.71924,-5.69736c0.17578,-1.10889 0.54785,-2.129 1.50586,-2.78848c0.73828,-0.50742 1.63037,-0.62124 2.49316,-0.42524c4.28906,0.9728 12.92139,12.25796 15.56982,16.06318c1.45752,2.09517 2.74805,4.3106 4.05322,6.50303c0.26221,-1.87485 0.22559,-4.77363 1.83252,-6.05757c0.59766,-0.47681 1.43115,-0.7522 2.19434,-0.64189c4.46924,0.64658 15.41895,15.69258 18.06592,19.39351c12.68994,17.74644 20.84912,34.93638 24.42334,56.59321c1.0166,6.1604 1.68164,12.51182 1.74756,18.75894c0.08496,7.98516 -0.69287,16.05938 -1.5835,23.98638c-0.59326,5.28369 -1.1543,10.52637 -2.02588,15.7749c3.63574,0.51416 5.56641,1.19824 8.3584,3.8042c6.64453,6.20361 8.23682,20.98389 8.4917,29.67773c0.32666,11.17822 -4.22168,23.91797 -12.18018,31.88525c-4.07812,4.08398 -7.54248,5.52539 -13.19238,5.53418c-2.01562,19.90723 -16.35205,33.27686 -32.06396,43.85303c-14.36426,9.66943 -31.45898,16.46338 -48.89941,17.16211c-9.63574,0.38672 -20.06836,-1.53662 -29.58149,-3.12158c-18.73755,-3.67383 -36.92314,-10.56885 -49.82769,-25.2627c-2.4731,-2.81689 -3.98115,-5.33936 -6.03252,-8.39502c-10.73101,7.91016 -27.63838,-0.09521 -35.61226,-8.71143c-8.76709,-9.47461 -12.87847,-22.95117 -12.89077,-35.73779c-0.00674,-6.84229 2.11099,-12.29004 6.99727,-16.94678c-8.75024,-15.76025 -15.63457,-34.27148 -17.12095,-52.40771c-0.1541,-1.87939 -1.32642,-5.38623 -1.66816,-7.66538c-1.55903,-11.05459 -1.31733,-22.28877 0.71572,-33.26616c0.39888,-2.11802 0.8436,-4.20381 1.47246,-6.26587c0.79351,-2.60186 1.50352,-3.74297 4.16016,-4.40684c2.50928,0.58521 2.75479,1.48096 3.89707,3.66255c0.63911,-3.54448 0.79248,-6.39229 1.61792,-10.2293c3.51724,-16.35234 11.47778,-29.48643 22.80249,-41.62588c2.12505,-2.02456 6.00161,-6.62798 9.03662,-6.60937c4.32671,0.02666 3.17212,6.64014 3.18604,9.48105c1.30723,-1.51201 2.38901,-3.38862 3.74019,-4.94707c13.71914,-15.8231 33.06094,-25.92861 51.07397,-36.05004c3.85811,-1.96638 7.66538,-4.41659 11.66616,-6.06508c6.09097,-2.44458 7.13364,2.45328 7.98779,7.12696c0.55884,3.05764 0.75205,6.6739 0.30044,9.7675c1.87544,-1.22373 4.12251,-2.94683 5.98286,-4.30225c4.90137,-3.50577 9.65625,-7.20971 14.25586,-11.10264c2.13721,-1.80879 4.14551,-4.06696 6.2915,-5.88771c0.60938,-0.51767 1.44873,-0.67424 2.23242,-0.8806z" fill="#121233"/><path d="M73.4354,217.91162c0.61758,1.93799 1.11694,5.92236 2.36821,7.18066c0.51958,0.53027 1.24673,0.8042 1.98706,0.74854c1.36685,-0.09229 1.86489,-1.69922 1.71621,-2.81689c-0.28667,-2.15332 -0.78486,-4.38721 -1.16587,-6.52881c-0.66738,-3.9126 -1.22373,-7.84424 -1.66831,-11.7876c-0.60981,-6.30615 -0.97207,-12.63281 -1.0856,-18.96826c-0.07134,-4.88965 0.05112,-9.78076 -0.023,-14.67041c-0.12568,-8.28662 -1.25127,-16.66113 0.54771,-24.85269c1.40757,-6.40972 4.51787,-12.49673 8.67847,-17.5626c11.002,-13.39541 41.57622,-18.39888 58.23735,-19.66948c1.44829,-0.11045 2.91914,0.05786 4.36934,0.09727c2.40527,0.06533 4.8457,0.01523 7.23926,-0.23818c2.80518,-0.29678 5.33203,-1.35952 8.06543,-1.86548c4.7124,-0.87231 9.54346,-1.32612 14.31299,-1.77466c10.16016,-0.95552 23.56494,-1.56064 33.27832,1.80352c3.10254,1.07461 6.14355,2.76313 8.66602,4.87031c4.96289,4.14844 8.98682,9.88521 11.58984,15.76538c1.59961,3.61479 2.88867,7.51948 3.77637,11.37041c0.60791,2.63979 1.01514,5.32222 1.64941,7.95806c2.06836,8.50195 3.93018,17.05371 5.58398,25.64648c1.76367,8.97217 3.48193,18.53906 4.26416,27.63428c1.14551,13.33154 1.51465,34.04443 -2.98828,46.65527c-1.78711,4.94531 -4.44434,9.53174 -7.84424,13.54248c-2.67334,3.17871 -6.13184,6.36475 -9.40869,9.03809c-14.81982,12.08789 -33.05566,21.97559 -52.32568,24.00879c-6.75586,0.71338 -15.21094,-0.49072 -21.83936,-1.4458c-18.64863,-2.72021 -38.50737,-8.62207 -52.44976,-21.92578c-6.65669,-6.35303 -11.55,-15.0249 -14.67686,-23.57666c-0.41836,-1.14404 -1.71021,-5.11963 -2.44204,-5.74219c-1.21055,-0.33838 -1.97256,0.72803 -2.28472,1.77539c0.26704,2.20898 1.85083,6.99756 2.66484,9.25635c0.31274,0.85547 0.71074,2.04492 1.06992,2.85205l-0.13975,0.15674c-0.82705,0.94189 -0.99111,1.88379 -1.58818,2.61182c-2.76475,3.36768 -8.87944,2.58691 -12.30996,1.61719l-1.90063,-0.65918c-16.78008,-6.08203 -23.03599,-20.37891 -24.61655,-37.08691c-0.90674,-9.58594 4.6084,-20.29248 15.60923,-15.54053c6.1396,2.65283 10.27544,7.75635 15.08335,12.12305z" fill="#e8b5a4"/><path d="M79.56313,242.58105c0.26704,2.20898 1.85083,6.99756 2.66484,9.25635c0.31274,0.85547 0.71074,2.04492 1.06992,2.85205l-0.13975,0.15674c-0.82705,0.94189 -0.99111,1.88379 -1.58818,2.61182c-2.76475,3.36768 -8.87944,2.58691 -12.30996,1.61719l-1.90063,-0.65918c1.65337,-0.25928 4.21831,-0.3501 6.17065,-0.60937l0.31304,-0.22852c2.28706,-2.7583 3.65229,-5.12549 4.26782,-8.76123c0.38745,-2.28809 0.22427,-4.14404 1.45225,-6.23584z" fill="#e89289"/><path d="M82.22798,251.8374c0.31274,0.85547 0.71074,2.04492 1.06992,2.85205l-0.13975,0.15674c-0.82705,0.94189 -0.99111,1.88379 -1.58818,2.61182c-2.76475,3.36768 -8.87944,2.58691 -12.30996,1.61719l-1.90063,-0.65918c1.65337,-0.25928 4.21831,-0.3501 6.17065,-0.60937l0.31304,-0.22852c2.16665,0.15088 6.13022,-1.56445 7.39482,-3.40723c0.25093,-0.36621 0.60894,-1.68896 0.99009,-2.3335z" fill="#c88588"/><path d="M134.17427,233.63232c1.26284,0.37354 3.23438,0.65771 4.57676,0.8584c6.7106,0.95654 13.50337,1.19824 20.26509,0.71777c11.94287,-0.81006 34.19092,-4.92773 45.38818,-12.2417c0.28857,-0.18896 0.04688,-0.95508 -0.02344,-1.27881l0.22412,-0.2168c1.22754,-0.27539 2.52539,-0.08643 3.55225,0.61963c2.04492,1.40625 2.98389,2.95752 1.59961,5.10498c-0.60498,-0.33398 -1.15137,-0.73975 -1.71826,-1.13672c-1.27295,8.24707 -3.81445,17.75391 -7.98486,25.01221c0.22266,0.3457 0.32666,0.34131 0.20215,0.73096c-0.3999,1.24658 -1.18799,2.66016 -1.88818,3.74854c-3.32373,5.16211 -6.79834,9.02783 -12.2124,12.06299c-7.04883,3.95947 -15.38232,4.9585 -23.16797,2.77588c-6.32373,-1.79297 -11.22363,-5.09912 -15.91846,-9.57715c-0.65742,-0.62842 -2.17354,-1.96289 -2.38857,-2.80225l0.22002,-0.30908c-4.37871,-4.7959 -7.41152,-8.95605 -10.69438,-14.66016c-0.61626,-1.0708 -2.28794,-5.29541 -2.9499,-5.59717c-1.06626,0.60059 -1.24468,2.39355 -2.71465,2.53125c-2.75493,-1.28174 -0.00278,-7.28027 2.30698,-8.41846c1.51436,-0.74561 2.8374,-1.91748 4.73672,-1.60986c0.42407,0.29443 0.27393,0.104 0.4478,0.60938c-0.17227,1.24512 -1.05601,2.09326 -1.85859,3.07617z" fill="#121233"/><path d="M200.05371,251.07129c0.22266,0.3457 0.32666,0.34131 0.20215,0.73096c-0.3999,1.24658 -1.18799,2.66016 -1.88818,3.74854c-3.32373,5.16211 -6.79834,9.02783 -12.2124,12.06299c-7.04883,3.95947 -15.38232,4.9585 -23.16797,2.77588c-6.32373,-1.79297 -11.22363,-5.09912 -15.91846,-9.57715c-0.65742,-0.62842 -2.17354,-1.96289 -2.38857,-2.80225l0.22002,-0.30908c17.36045,16.44141 42.44004,14.13135 55.15342,-6.62988z" fill="#f1cbbd"/><path d="M138.31099,237.80859c17.02397,3.57422 49.29155,-1.81934 64.45122,-10.13818c-0.31055,0.94629 -0.72656,2.26611 -1.24072,3.09082c-0.75586,1.40771 -1.35352,2.50928 -2.4624,3.67383c-3.25635,3.42041 -9.45703,5.68506 -13.95557,7.04004c-10.89844,3.23291 -22.31396,4.35205 -33.63281,3.2959c-6.13271,-0.50244 -10.01733,-0.96387 -13.15972,-6.9624z" fill="#fefefe"/><path d="M138.31099,237.80859c17.02397,3.57422 49.29155,-1.81934 64.45122,-10.13818c-0.31055,0.94629 -0.72656,2.26611 -1.24072,3.09082c-1.00781,-0.31787 -5.25879,1.98926 -6.48926,2.46094c-14.22363,5.43604 -30.41162,7.58789 -45.55225,7.9292c0.42041,0.88037 1.37402,2.87109 1.99072,3.61963c-6.13271,-0.50244 -10.01733,-0.96387 -13.15972,-6.9624z" fill="#b1cbde"/><path d="M172.84424,254.04785c6.53027,-2.55762 13.47949,-2.49463 18.76611,2.64697c-0.55371,0.51563 -1.17773,0.98877 -1.77246,1.46191c-7.40479,5.69971 -13.57764,7.61865 -23.1416,6.70313c-0.91846,-0.08789 -2.18115,-0.3252 -3.07764,-0.55957c-3.18896,-0.60498 -7.37695,-2.26318 -10.07812,-4.09863c5.21924,-4.2876 10.79443,-7.17187 17.77002,-4.99072c1.18066,0.36914 2.37012,1.05615 3.52734,1.53369l0.20215,-0.18604c-0.09814,-0.77783 -1.59375,-1.96289 -2.1958,-2.51074z" fill="#c88588"/><path d="M172.84424,254.04785c6.53027,-2.55762 13.47949,-2.49463 18.76611,2.64697c-0.55371,0.51563 -1.17773,0.98877 -1.77246,1.46191c-2.44189,-3.67822 -7.83691,-4.17334 -11.62061,-2.50635c-1.9585,0.86426 -1.1001,2.89014 -1.62012,3.99902c-0.6123,-0.01611 -1.88672,-0.97559 -2.6499,-1.27295c-2.88281,-1.12354 -5.62646,-0.91699 -8.43018,0.27539c-2.75537,1.17334 -5.29395,3.15234 -1.89844,5.64844c-3.18896,-0.60498 -7.37695,-2.26318 -10.07812,-4.09863c5.21924,-4.2876 10.79443,-7.17187 17.77002,-4.99072c1.18066,0.36914 2.37012,1.05615 3.52734,1.53369l0.20215,-0.18604c-0.09814,-0.77783 -1.59375,-1.96289 -2.1958,-2.51074z" fill="#cc4756"/><path d="M99.41133,202.64648c-1.5394,-0.03076 -2.53506,-0.70312 -2.8979,-2.22656c-1.42749,-5.98975 -0.30396,-13.07666 2.49419,-18.35742c3.41763,-6.43652 9.2877,-11.22217 16.28086,-13.27148c6.90762,-2.08447 14.25498,-1.73145 20.64727,1.74756c5.92441,3.16699 10.3519,8.55469 12.3123,14.97949c0.55225,1.87939 1.46631,6.35596 0.62256,8.33643c-0.09375,0.21973 -0.30322,0.20508 -0.59766,0.28711c-0.31494,4.83398 -1.11182,7.42676 -4.92773,10.72266c-2.23623,1.93213 -6.80068,4.69922 -9.69902,5.21924l-0.3312,-0.15088c-4.73437,3.16699 -10.69556,3.88477 -16.04707,1.93506c-0.72964,0.37061 -1.60942,0.09814 -2.4019,-0.0249c-5.97012,-0.93018 -12.49351,-3.60791 -15.45469,-9.19629z" fill="#121233"/><path d="M99.41133,202.64648c-1.5394,-0.03076 -2.53506,-0.70312 -2.8979,-2.22656c-1.42749,-5.98975 -0.30396,-13.07666 2.49419,-18.35742c3.41763,-6.43652 9.2877,-11.22217 16.28086,-13.27148c6.90762,-2.08447 14.25498,-1.73145 20.64727,1.74756c5.92441,3.16699 10.3519,8.55469 12.3123,14.97949c0.55225,1.87939 1.46631,6.35596 0.62256,8.33643c-0.09375,0.21973 -0.30322,0.20508 -0.59766,0.28711c-0.31494,4.83398 -1.11182,7.42676 -4.92773,10.72266c-2.23623,1.93213 -6.80068,4.69922 -9.69902,5.21924l-0.3312,-0.15088c6.86865,-4.59521 9.68877,-13.30078 6.81826,-21.0498c-2.87065,-7.74902 -10.68208,-12.51709 -18.88623,-11.52832c-8.204,0.98877 -14.6584,7.47803 -15.60498,15.68701c-0.94644,8.20898 3.86206,15.99463 11.62588,18.82617c-0.72964,0.37061 -1.60942,0.09814 -2.4019,-0.0249c-5.97012,-0.93018 -12.49351,-3.60791 -15.45469,-9.19629z" fill="#fefefe"/><path d="M99.41133,202.64648c-1.5394,-0.03076 -2.53506,-0.70312 -2.8979,-2.22656c-1.42749,-5.98975 -0.30396,-13.07666 2.49419,-18.35742c3.41763,-6.43652 9.2877,-11.22217 16.28086,-13.27148c6.90762,-2.08447 14.25498,-1.73145 20.64727,1.74756c5.92441,3.16699 10.3519,8.55469 12.3123,14.97949c0.55225,1.87939 1.46631,6.35596 0.62256,8.33643c-0.09375,0.21973 -0.30322,0.20508 -0.59766,0.28711c-1.61572,-7.30811 -4.63887,-13.71387 -11.13413,-17.96045c-5.08916,-3.20947 -11.21162,-4.48096 -17.09458,-3.17871c-11.99268,2.65576 -19.84043,12.83643 -20.1627,24.97119c-0.03486,1.30957 0.254,3.65479 -0.47021,4.67285z" fill="#121233"/><path d="M111.00615,203.02881c-3.65186,-5.65869 -2.98579,-13.07666 1.61572,-17.99414c4.60166,-4.91748 11.95869,-6.07471 17.84736,-2.80664c5.88882,3.26807 8.79902,10.12354 7.06011,16.63037c-1.2252,4.5835 -4.58994,8.29395 -9.03311,9.95801c-4.44302,1.66553 -9.41689,1.08105 -13.35278,-1.56885c-1.65073,-1.11182 -3.0583,-2.54736 -4.1373,-4.21875z" fill="#121233"/><path d="M111.00615,203.02881c-3.65186,-5.65869 -2.98579,-13.07666 1.61572,-17.99414c4.60166,-4.91748 11.95869,-6.07471 17.84736,-2.80664c5.88882,3.26807 8.79902,10.12354 7.06011,16.63037l-0.28418,0.07031c-0.57949,-1.54834 -2.41377,-2.78906 -3.76802,-3.73682c-0.08701,-3.31348 -0.34131,-5.29395 -2.6042,-7.89404c-2.35767,-2.7085 -5.50532,-3.84668 -9.06768,-3.33105c-1.09819,0.15967 -2.80444,0.74561 -3.63882,1.50586c-2.30962,-0.96094 -4.97505,-0.10547 -6.29429,2.02002c-1.31938,2.12549 -0.90381,4.89258 0.98159,6.5376c-0.23203,2.66016 -0.1292,3.84521 1.02041,6.24023c-1.33257,0.41895 -2.39502,1.44287 -2.86802,2.7583z" fill="url(#color-1)"/><path d="M133.47715,195.19189c1.35425,0.94775 3.18853,2.18848 3.76802,3.73682l0.28418,-0.07031c-1.2252,4.5835 -4.58994,8.29395 -9.03311,9.95801c-4.44302,1.66553 -9.41689,1.08105 -13.35278,-1.56885c0.92739,-1.58789 1.64355,-2.05664 3.15264,-2.9458c0.75586,0.28418 1.53882,0.59619 2.30771,0.83203c5.23081,1.24219 10.4877,-2.21777 12.32314,-7.11328c0.28462,-1.02246 0.39082,-1.77979 0.5502,-2.82861z" fill="#bf8d4b"/><path d="M133.47715,195.19189c1.35425,0.94775 3.18853,2.18848 3.76802,3.73682l0.28418,-0.07031c-1.2252,4.5835 -4.58994,8.29395 -9.03311,9.95801c-4.44302,1.66553 -9.41689,1.08105 -13.35278,-1.56885c0.92739,-1.58789 1.64355,-2.05664 3.15264,-2.9458c0.75586,0.28418 1.53882,0.59619 2.30771,0.83203c-0.80991,0.65039 -1.84761,1.25391 -1.97622,2.22217c0.28301,0.45117 0.99155,0.92578 1.47876,1.11475c4.89609,1.90576 11.05298,-0.84082 13.06436,-5.66309c0.48721,-1.16895 1.2123,-4.19824 -0.24375,-4.78711c0.28462,-1.02246 0.39082,-1.77979 0.5502,-2.82861z" fill="#855a3d"/><path d="M112.85376,194.03027c-1.8854,-1.64502 -2.30098,-4.41211 -0.98159,-6.5376c1.31924,-2.12549 3.98467,-2.98096 6.29429,-2.02002c1.86606,0.7749 3.09829,2.57959 3.14253,4.59961c0.04409,2.02002 -1.10815,3.87598 -2.93848,4.73291c-1.83018,0.85693 -3.9936,0.55225 -5.51675,-0.7749z" fill="#fefefe"/><path d="M111.00615,203.02881c0.473,-1.31543 1.53545,-2.33936 2.86802,-2.7583c1.13013,1.89258 2.50737,2.99561 4.42192,4.03125c-1.50908,0.88916 -2.22524,1.35791 -3.15264,2.9458c-1.65073,-1.11182 -3.0583,-2.54736 -4.1373,-4.21875z" fill="#6d4939"/><path d="M183.72656,189.59326c-0.27979,-0.00439 -0.2417,-0.01611 -0.51855,-0.09521c-0.53467,-0.63281 -0.93018,-3.96094 -0.98291,-4.87061c-0.4292,-6.92725 1.97754,-13.73145 6.66797,-18.84668c4.43555,-4.94531 10.6875,-7.87939 17.32471,-8.13135c15.37646,-0.71631 26.57373,9.90674 27.2666,25.01367c0.09814,2.16064 0.03809,4.91748 -2.75391,4.83252l-0.19482,-0.00732c-2.24414,5.49463 -6.50537,8.61328 -11.84766,11.06104c-1.25537,0.57568 -3.94336,1.64502 -5.23242,1.48242c-5.50195,3.06152 -12.21533,2.97803 -17.63965,-0.21973c-0.77344,0.34424 -3.89648,-1.18506 -4.75635,-1.61572c-3.86133,-1.93066 -5.97363,-4.53662 -7.33301,-8.60303z" fill="#121233"/><path d="M183.72656,189.59326c-0.27979,-0.00439 -0.2417,-0.01611 -0.51855,-0.09521c-0.53467,-0.63281 -0.93018,-3.96094 -0.98291,-4.87061c-0.4292,-6.92725 1.97754,-13.73145 6.66797,-18.84668c4.43555,-4.94531 10.6875,-7.87939 17.32471,-8.13135c15.37646,-0.71631 26.57373,9.90674 27.2666,25.01367c0.09814,2.16064 0.03809,4.91748 -2.75391,4.83252l-0.19482,-0.00732c-2.24414,5.49463 -6.50537,8.61328 -11.84766,11.06104c-1.25537,0.57568 -3.94336,1.64502 -5.23242,1.48242c7.02832,-3.90967 10.54688,-12.05859 8.57666,-19.85449c-1.97168,-7.79736 -8.94141,-13.29346 -16.98193,-13.39453c-8.04199,-0.09961 -15.14648,5.2207 -17.31152,12.9668c-2.16504,7.74463 1.1499,15.97852 8.07715,20.0625c-0.77344,0.34424 -3.89648,-1.18506 -4.75635,-1.61572c-3.86133,-1.93066 -5.97363,-4.53662 -7.33301,-8.60303z" fill="#fefefe"/><path d="M183.72656,189.59326c-0.27979,-0.00439 -0.2417,-0.01611 -0.51855,-0.09521c-0.53467,-0.63281 -0.93018,-3.96094 -0.98291,-4.87061c-0.4292,-6.92725 1.97754,-13.73145 6.66797,-18.84668c4.43555,-4.94531 10.6875,-7.87939 17.32471,-8.13135c15.37646,-0.71631 26.57373,9.90674 27.2666,25.01367c0.09814,2.16064 0.03809,4.91748 -2.75391,4.83252l-0.19482,-0.00732c-0.83496,-1.10742 -0.78369,-4.37109 -1.10889,-5.94287c-1.9248,-9.0542 -8.98096,-16.13672 -18.02783,-18.09668c-5.61182,-1.24219 -11.48877,-0.1875 -16.31982,2.92969c-5.80371,3.75586 -9.09082,9.27979 -10.62744,15.9624c-0.60059,2.61035 -0.30615,4.88525 -0.7251,7.25244z" fill="#121233"/><path d="M192.23877,192.11865c-3.3208,-5.49316 -2.65723,-12.51123 1.6333,-17.28369c4.29199,-4.77246 11.2002,-6.17725 17.01416,-3.45703c5.8125,2.72021 9.1626,8.92236 8.24854,15.27539c-0.69434,4.82813 -3.75879,8.98828 -8.16357,11.08447c-4.40479,2.09619 -9.56543,1.84863 -13.75049,-0.65771c-2.04053,-1.22168 -3.75146,-2.92529 -4.98193,-4.96143z" fill="#121233"/><path d="M192.23877,192.11865c-3.3208,-5.49316 -2.65723,-12.51123 1.6333,-17.28369c4.29199,-4.77246 11.2002,-6.17725 17.01416,-3.45703c5.8125,2.72021 9.1626,8.92236 8.24854,15.27539c-0.40869,-0.69873 -0.55518,-1.51465 -1.08545,-2.41699c-0.62256,-1.06348 -2.45654,-2.55322 -3.62402,-2.82568l-0.19482,0.18311c-1.39746,-4.67871 -4.7417,-8.37158 -10.01074,-7.9834c-1.3418,0.09961 -3.79541,0.51416 -4.85596,1.30957c-2.30273,-0.89355 -4.91602,-0.00879 -6.20361,2.10059c-1.2876,2.10938 -0.87891,4.83691 0.96973,6.47754c-0.31494,2.62939 -0.03955,3.75586 1.03418,6.16992c-1.48096,0.85547 -1.8501,1.09717 -2.92529,2.45068z" fill="#4a3231"/><path d="M214.23047,181.59375l0.19482,-0.18311c1.16748,0.27246 3.00146,1.76221 3.62402,2.82568c0.53027,0.90234 0.67676,1.71826 1.08545,2.41699c-0.69434,4.82813 -3.75879,8.98828 -8.16357,11.08447c-4.40479,2.09619 -9.56543,1.84863 -13.75049,-0.65771c0.31494,-1.76807 0.81592,-2.13135 2.1958,-3.18311c0.70898,0.28711 1.46631,0.62109 2.19873,0.82324c4.10303,1.04297 7.54541,-0.73682 10.44287,-3.49658c0.8042,-0.89941 1.13086,-1.50586 1.58936,-2.58252c0.96533,-2.72754 1.00635,-4.15723 0.58301,-7.04736z" fill="#855a3d"/><path d="M212.05811,191.22363c0.6416,0.60938 0.79688,0.92432 1.24219,1.66553c-0.01758,0.88623 -0.73975,1.41504 -1.34033,2.0083c-1.98779,1.97314 -4.73877,3.3252 -7.58496,3.18604c-1.19092,-0.05713 -4.60693,-0.28418 -4.37549,-2.03613c0.09668,-0.73975 0.91699,-1.23926 1.61572,-1.32715c4.10303,1.04297 7.54541,-0.73682 10.44287,-3.49658z" fill="#bf8d4b"/><path d="M213.64746,188.64111c1.71826,0.97266 0.11426,2.87988 -0.34717,4.24805c-0.44531,-0.74121 -0.60059,-1.05615 -1.24219,-1.66553c0.8042,-0.89941 1.13086,-1.50586 1.58936,-2.58252z" fill="#996c45"/><path d="M194.12988,183.49805c-1.84863,-1.64062 -2.25732,-4.36816 -0.96973,-6.47754c1.2876,-2.10937 3.90088,-2.99414 6.20361,-2.10059c1.9043,0.73828 3.18311,2.54004 3.25488,4.58057c0.07178,2.04053 -1.07959,3.92725 -2.92676,4.7959c-1.84717,0.87012 -4.03418,0.55518 -5.56201,-0.79834z" fill="#fefefe"/><path d="M192.23877,192.11865c1.0752,-1.35352 1.44434,-1.59521 2.92529,-2.45068c1.22607,1.93066 2.21338,3.08057 4.25244,4.229c-1.37988,1.05176 -1.88086,1.41504 -2.1958,3.18311c-2.04053,-1.22168 -3.75146,-2.92529 -4.98193,-4.96143z" fill="#6d4939"/><path d="M154.11328,214.44434c-1.7373,-11.84473 24.74121,-20.71289 32.40527,-7.58203c1.10449,2.40674 1.37695,4.94824 0.51416,7.50146c-1.18945,3.60059 -5.35107,5.97949 -8.625,7.49121c-4.97314,2.29688 -10.93213,2.08008 -15.9873,0.17285c-4.4165,-1.66699 -6.68994,-3.04541 -8.30713,-7.5835z" fill="#e89289"/><path d="M186.51855,206.8623c1.10449,2.40674 1.37695,4.94824 0.51416,7.50146c-1.18945,3.60059 -5.35107,5.97949 -8.625,7.49121c-4.97314,2.29688 -10.93213,2.08008 -15.9873,0.17285c-4.4165,-1.66699 -6.68994,-3.04541 -8.30713,-7.5835c2.35107,0.1084 4.72705,1.10449 6.85986,1.64063c7.21582,1.79443 14.30713,1.26123 20.15186,-3.67969c2.23242,-1.88672 4.39893,-2.27783 5.39355,-5.54297z" fill="#c88588"/><path d="M157.67725,217.38428c1.01514,0.20654 2.32617,1.04883 3.35449,1.16748c2.62061,0.30322 4.94824,-0.15381 7.47656,0.93164c0.97705,0.41895 2.10645,0.97705 2.54004,2.00537c-1.4209,-0.00293 -2.79199,-0.21094 -4.24512,-0.08789c-2.9165,0.24609 -8.23975,-0.62988 -9.12598,-4.0166z" fill="#121233"/><path d="M184.99951,214.48242c0.3501,0.06885 0.21973,0.02051 0.51563,0.25049c0.12744,3.1582 -5.72168,4.75635 -8.08887,5.44629c-0.3501,0.01904 -0.22412,0.03809 -0.54492,-0.09814c-0.01318,-1.36963 4.7666,-4.13232 5.97949,-4.87061c0.61963,-0.37646 1.42822,-0.60205 2.13867,-0.72803z" fill="#121233"/><path d="M166.29346,203.72607c3.33838,-0.97998 7.74756,-1.57471 11.08594,-0.30469c5.50049,1.62744 5.10352,7.10156 0.38232,9.07324c-5.47559,2.28662 -12.48486,2.97363 -18.11719,0.91553c-1.94531,-0.70605 -3.98291,-2.78027 -2.94873,-4.87793c1.30811,-2.6499 7.00342,-4.34033 9.59766,-4.80615z" fill="#f1cbbd"/><path d="M177.37939,203.42139c5.50049,1.62744 5.10352,7.10156 0.38232,9.07324c-5.47559,2.28662 -12.48486,2.97363 -18.11719,0.91553c-1.94531,-0.70605 -3.98291,-2.78027 -2.94873,-4.87793c1.30811,-2.6499 7.00342,-4.34033 9.59766,-4.80615c-1.05176,0.91846 -3.09961,1.40625 -4.0957,2.5415c-2.35986,2.63232 -0.51855,4.29932 2.50928,4.78271c4.28613,0.68408 11.18262,0.26953 14.23975,-3.29883c1.41211,-1.64941 -0.1626,-3.33838 -1.56738,-4.33008z" fill="#e8b5a4"/><path d="M122.7605,142.14946c4.89434,-0.38818 14.6187,0.0772 18.3394,3.85137c1.36875,1.38882 1.36113,5.28237 -0.5855,6.43081c-1.86606,1.10156 -4.25918,0.00586 -6.24785,-0.27979c-11.86729,-2.63525 -21.07778,-0.09961 -31.16221,6.62109c-1.56665,1.18506 -2.53271,1.97314 -4.26812,3.42188c-1.01719,0.70752 -5.4394,5.86084 -6.28081,5.80225c-4.44917,-0.30762 3.57363,-11.72754 4.57383,-12.92725c6.90278,-8.28369 15.11455,-11.86831 25.63125,-12.92036z" fill="#121233"/><path d="M46.1502,219.18018c-0.05947,-3.34277 2.025,-4.98926 5.34668,-4.75488c6.06108,0.42773 10.7811,5.34229 14.68096,9.50684c2.08315,2.2251 9.27349,12.97266 6.88989,15.97852c-1.13013,0.41455 -2.06602,-0.71631 -2.79741,-1.45898c-1.49868,-0.61084 -2.58501,-2.29102 -3.96943,-2.44922c-2.0436,0.83057 -0.24609,4.84131 0.31626,6.29297c1.94209,3.47168 2.75522,4.17188 6.73301,4.85449c-2.73208,0.65186 -4.99043,0.70605 -7.61733,-0.48193c-3.41396,-1.54395 -6.87568,-5.72461 -8.13076,-9.18896c-1.10259,-2.5459 -1.63271,-5.62793 -3.37412,-7.71826c-1.32349,-1.58789 -4.68472,-4.8252 -6.75674,-5.05371c-0.33867,0.15527 -0.45527,0.17578 -0.82002,0.26953l-0.19512,-0.1377c-0.39902,-1.28613 -0.30381,-4.20557 -0.30586,-5.65869z" fill="#c88588"/><path d="M46.1502,219.18018c-0.05947,-3.34277 2.025,-4.98926 5.34668,-4.75488c6.06108,0.42773 10.7811,5.34229 14.68096,9.50684c2.08315,2.2251 9.27349,12.97266 6.88989,15.97852c-1.13013,0.41455 -2.06602,-0.71631 -2.79741,-1.45898c-1.23354,-1.86621 -3.08994,-5.64697 -4.45752,-7.125c-3.06812,3.25928 -2.05562,6.17725 -2.27432,9.82471c-2.95181,-4.19092 -3.81855,-9.9873 -0.63501,-14.29248c-2.15259,-3.07617 -12.29766,-12.45703 -15.82983,-7.58057c-0.28916,-0.01611 -0.63076,-0.06445 -0.92344,-0.09814z" fill="#121233"/><path d="M57.60205,237.479c2.20869,2.16797 5.11655,4.74463 8.67568,4.91309c0.11763,0.00586 0.22852,-0.0498 0.3394,-0.09668c1.94209,3.47168 2.75522,4.17188 6.73301,4.85449c-2.73208,0.65186 -4.99043,0.70605 -7.61733,-0.48193c-3.41396,-1.54395 -6.87568,-5.72461 -8.13076,-9.18896z" fill="#e89289"/><path d="M46.1502,219.18018c0.29268,0.03369 0.63428,0.08203 0.92344,0.09814l0.21782,0.1582c0.10737,1.75488 0.16729,3.5127 0.17974,5.27051c-0.33867,0.15527 -0.45527,0.17578 -0.82002,0.26953l-0.19512,-0.1377c-0.39902,-1.28613 -0.30381,-4.20557 -0.30586,-5.65869z" fill="#e89289"/><path d="M201.28418,133.21479c10.09131,-1.34092 23.57227,5.22598 27.29883,15.11821c0.1626,0.43213 0.09082,0.91553 -0.13916,1.30518c-1.50293,1.00635 -4.57178,-1.82812 -5.99121,-2.7085c-4.16016,-2.59893 -8.82129,-4.29302 -13.67871,-4.97227c-8.23389,-0.85518 -14.7627,1.61177 -21.94189,5.24033c-1.64795,0.83203 -3.93164,1.82959 -5.52246,0.42334c-0.83643,-0.73975 -1.24951,-2.0064 -1.37842,-3.10327c-0.35889,-4.10156 4.04004,-6.26689 7.14258,-7.73027c4.45605,-2.01504 9.375,-3.15513 14.21045,-3.57275z" fill="#121233"/><path d="M174.97998,6.66872c2.70557,3.72138 5.87695,10.35204 7.57764,14.62923c2.41553,6.6687 4.1792,14.54751 3.68701,21.72144c-0.19189,2.78584 -2.40234,9.65874 -3.74561,12.25635c-0.35156,0.68174 -0.92578,1.82197 -0.9917,2.5582c1.90576,-2.16914 3.12598,-4.21025 4.73145,-6.49541c4.61426,-6.56895 7.229,-11.88867 9.55811,-19.53765c0.62549,-2.35459 0.66064,-3.11807 1.00635,-5.33774l0.24316,0.01509l0.43799,0.50654c4.37695,4.75283 7.90283,9.08892 11.03467,14.81382c5.25732,9.34951 9.17871,21.63105 5.42139,32.13369c-4.08252,11.32061 -12.25049,18.91538 -22.77246,24.1793c-2.83447,1.41797 -6.91406,1.454 -10.0752,1.5394c-5.21631,0.14092 -10.04004,0.81899 -15.19629,1.50117c3.54639,-4.71958 6.55078,-9.72305 8.16504,-15.45293l-0.12744,0.16333c-1.01514,1.31631 -2.41992,4.04517 -3.38086,5.62676c-1.125,1.83398 -2.39648,3.57334 -3.8042,5.20122c-1.05615,1.24717 -2.41846,2.80605 -3.69727,3.79072c-3.71777,2.86128 -9.51855,3.9936 -14.11963,3.65303c-6.22148,0.39126 -10.99995,-2.39312 -15.6,-6.271c-8.42183,-7.13701 -13.65703,-17.33218 -14.55029,-28.33521c-0.08511,-2.53711 -0.00908,-5.49053 0.65918,-7.99453c4.10654,-15.38789 19.89067,-26.51177 32.06045,-35.48262c8.15918,-6.01509 17.16797,-11.4844 23.47852,-19.38221z" fill="#edb253"/><path d="M174.97998,6.66872c2.70557,3.72138 5.87695,10.35204 7.57764,14.62923c-0.17578,0.10371 -0.58008,0.25386 -0.55518,0.44385c0.5625,4.22754 1.14844,7.92773 0.96826,12.26133c-0.51562,12.72378 -5.10645,25.1332 -12.82617,35.25366c-5.3833,7.05439 -13.09131,15.91318 -22.9292,14.70571c-7.6645,-0.94058 -12.03018,-7.83721 -13.68208,-14.79829c-0.14414,-0.60747 -0.33003,-1.86079 -0.92197,-2.06748c-0.48794,0.42202 -0.57539,1.56094 -0.63237,2.227c-0.57495,6.72788 0.79409,12.89722 3.60835,18.97734c0.70518,1.52344 2.60815,4.32964 3.06855,5.73472c-0.72495,0.53247 -2.36484,-0.79409 -3.0416,-1.17788c-7.4001,-4.19751 -12.73579,-10.52358 -15.30894,-18.68848c-0.34277,-1.08809 -0.96636,-3.80566 -1.52344,-4.64136c-0.08511,-2.53711 -0.00908,-5.49053 0.65918,-7.99453c4.10654,-15.38789 19.89067,-26.51177 32.06045,-35.48262c8.15918,-6.01509 17.16797,-11.4844 23.47852,-19.38221z" fill="#fddf48"/><path d="M174.48193,12.66495c0.66211,0.26981 0.91406,0.83771 1.07959,1.49687c1.48682,5.92705 2.09473,12.63325 0.76758,18.61934c-1.979,8.92896 -6.94336,17.42622 -12.82471,24.33398c-4.18799,4.9166 -9.65479,9.71543 -15.80127,11.82949c-2.88735,0.99331 -5.29424,0.79746 -7.98164,-0.57524c-2.02046,-1.63228 -3.27261,-3.45498 -3.71733,-6.0085c-1.33096,-7.64253 3.44985,-13.36597 8.20752,-18.41777c8.99194,-9.548 20.31372,-16.2769 27.74341,-27.17358c0.92139,-1.35161 1.6377,-2.7639 2.52686,-4.10458z" fill="#fef26c"/><path d="M133.65366,48.74678c0.55005,0.03193 0.62622,0.04028 0.92783,0.4333c0.03721,0.40005 -0.04805,0.7894 -0.19702,1.15942c-1.46807,3.75791 -3.11309,7.60444 -3.9126,11.5834c-0.97295,4.98325 -1.21553,9.96489 -1.02759,15.03179c0.04673,1.25815 0.21709,4.2085 -0.15923,5.27183l-0.21372,0.04761c-1.03623,-0.47534 -2.36089,-1.92832 -3.20508,-2.78555c-3.77036,-4.62729 -4.80439,-9.67178 -3.15938,-15.45088c0.46538,-1.61807 1.11855,-3.17607 1.94634,-4.64209c1.52959,-2.746 6.21489,-9.0876 9.00044,-10.64883z" fill="#fef26c"/><path d="M197.48438,26.98477c4.37695,4.75283 7.90283,9.08892 11.03467,14.81382c-0.11426,0.3375 -0.19482,0.58345 -0.07764,0.9438c1.36084,4.20703 2.8667,7.93433 3.37354,12.37705c0.37646,3.36577 0.10693,6.77227 -0.79248,10.03726c-1.97168,7.43555 -7.32715,14.12373 -13.93799,17.99165c-3.61963,2.11772 -8.40234,3.41162 -12.56982,3.8439c-1.021,0.10591 -2.3584,0.39067 -3.34424,0.12539c-1.68018,-3.98599 9.71338,-22.49517 11.62793,-26.83345c4.0166,-9.09624 5.1123,-18.05596 4.67139,-27.93281c-0.04395,-0.98745 -0.40137,-4.68193 0.01465,-5.3666z" fill="#fddf48"/><path d="M198.41455,32.57754c1.95557,0.31611 4.55713,5.14731 5.50928,6.87305c3.44531,6.2521 5.625,14.78862 3.57129,21.81299c-1.53955,5.26055 -5.38623,8.56992 -10.04297,11.06045c-2.26904,1.13804 -4.83691,2.0499 -7.36963,2.31987c0.38672,-1.31792 1.14404,-2.88428 1.60107,-4.24102c2.08301,-6.1812 5.05225,-12.24771 6.06152,-18.7043c0.50098,-3.20215 0.44238,-5.95547 0.59326,-9.03237c0.09521,-1.97446 -0.43945,-8.84883 0.07617,-10.08867z" fill="#fef26c"/><path d="M172.85303,96.35977c0.99463,0.20068 2.06836,0.3 3.07471,0.41909c5.46094,0.64585 9.96826,-1.20776 14.77588,-3.48516c6.23438,-2.95371 12.1333,-6.31992 16.86914,-11.46592c1.75488,-1.90737 3.50684,-3.8168 4.88232,-6.02285c0.41455,-0.6561 0.85693,-1.41958 1.48535,-1.87266c-4.08252,11.32061 -12.25049,18.91538 -22.77246,24.1793c-2.83447,1.41797 -6.91406,1.454 -10.0752,1.5394c-5.21631,0.14092 -10.04004,0.81899 -15.19629,1.50117c3.54639,-4.71958 6.55078,-9.72305 8.16504,-15.45293l-0.12744,0.16333c-1.01514,1.31631 -2.41992,4.04517 -3.38086,5.62676c-1.125,1.83398 -2.39648,3.57334 -3.8042,5.20122c-1.05615,1.24717 -2.41846,2.80605 -3.69727,3.79072c-3.71777,2.86128 -9.51855,3.9936 -14.11963,3.65303c-0.22705,-0.15732 -0.57568,-0.13359 -0.90088,-0.16582l0.05273,-0.16099c0.08496,-0.00103 0.3457,-0.0063 0.41748,0.0022c0.83496,0.1002 5.12402,-1.31733 6.10693,-1.71914c10.88965,-4.45342 17.22363,-13.6021 21.61084,-24.04453c1.13379,-0.73315 1.38867,-0.87993 2.16504,-1.94663c-1.02832,6.95024 -2.88428,13.75225 -5.53125,20.2604z" fill="#e6a054"/><path d="M195.79688,31.80088c0.75586,0.80874 -0.25342,4.66831 -0.48633,5.81221c-2.08008,10.17437 -7.979,21.60938 -15.7002,28.62041c-1.2334,1.10391 -2.53857,2.12578 -3.90674,3.05889c1.4707,-2.52495 2.88428,-5.01021 4.16162,-7.64121c0.60498,-1.24482 1.0708,-2.64492 1.64209,-3.81724c1.90576,-2.16914 3.12598,-4.21025 4.73145,-6.49541c4.61426,-6.56895 7.229,-11.88867 9.55811,-19.53765z" fill="#fddf48"/><path d="M138.74077,10.72988l0.31289,-0.10061c0.48662,0.47878 1.05396,3.39381 1.1562,4.16755c0.62139,4.70127 -0.25957,9.34937 -1.24482,13.92539c-0.36328,1.58818 -0.16758,3.04556 -1.50762,4.21362c-10.2665,8.94902 -21.97852,20.13047 -21.89766,34.85713c0.0835,15.18896 9.51343,28.725 22.03213,36.59561c-5.92603,0.44985 -11.53433,1.84277 -17.09253,2.38667c-1.81187,-0.62769 -2.65693,-0.03633 -3.91816,-0.28433c-4.28804,-0.84331 -6.88857,-0.22383 -11.1293,0.49731c-9.04072,1.5375 -18.07837,-0.73008 -25.26489,-6.44854c-0.98599,-0.78457 -2.79141,-3.00981 -3.67515,-3.40752c-0.00571,-0.00527 -0.01143,-0.01069 -0.01714,-0.01611c-2.73076,-3.92813 -6.71807,-15.0397 -6.46245,-19.56313c-0.46216,-3.11294 -0.10752,-6.50317 0.65889,-9.54023c5.63525,-22.33154 37.71211,-39.13652 56.33657,-49.91982c3.99258,-2.31167 7.76089,-4.99069 11.71304,-7.36299z" fill="#edb253"/><path d="M138.74077,10.72988c-0.10107,0.73239 -0.67397,1.85032 -1.00195,2.57465l-0.29253,-0.06284c-3.55063,3.94723 -6.84521,8.16993 -10.32334,12.15738c-10.10596,11.58589 -22.27061,23.8251 -22.60781,40.25054c-0.01509,0.73301 0.08306,2.70747 -0.56968,2.95474c-0.6624,-0.13594 -1.11636,-0.40679 -1.48579,-1.01382c-1.89697,-3.1166 -2.2147,-6.83115 -2.27212,-10.3897c-0.02183,-1.35161 0.02725,-2.79507 -0.16904,-4.06099c-3.75894,4.6478 -5.52363,13.57559 -4.90225,19.4543c0.71543,6.76948 3.17256,12.89385 6.7853,18.61157c0.73872,1.16895 3.12993,4.20762 3.30527,5.19478c-1.12061,1.2542 -8.91064,-3.10825 -9.9939,-4.14609c-0.42026,-0.40254 -2.69546,-1.99146 -3.07236,-2.11772c-0.4623,-0.39463 -0.91274,-0.80317 -1.35073,-1.2249c-5.84268,-5.67305 -9.15498,-13.45957 -9.18999,-21.60337c-0.0082,-10.2561 4.63799,-17.8856 11.65781,-24.8729c-1.60356,0.86836 -3.23027,2.12109 -4.66084,3.202c-9.11924,6.89209 -16.43657,16.84995 -17.85806,28.43672c-0.11514,0.9375 -0.06709,2.8437 -0.70649,3.47871c-0.46216,-3.11294 -0.10752,-6.50317 0.65889,-9.54023c5.63525,-22.33154 37.71211,-39.13652 56.33657,-49.91982c3.99258,-2.31167 7.76089,-4.99069 11.71304,-7.36299z" fill="#fef26c"/><path d="M100.01851,53.13984c0.19629,1.26592 0.14722,2.70938 0.16904,4.06099c0.05742,3.55854 0.37515,7.2731 2.27212,10.3897c0.36943,0.60703 0.82339,0.87788 1.48579,1.01382c0.65273,-0.24727 0.55459,-2.22173 0.56968,-2.95474c0.33721,-16.42544 12.50186,-28.66465 22.60781,-40.25054c3.47812,-3.98745 6.77271,-8.21016 10.32334,-12.15738l0.29253,0.06284l-0.06094,0.17073c-5.44775,14.86786 -19.36436,24.59046 -24.93823,39.66385c-4.58613,12.40195 -3.37603,23.92485 1.66025,35.8834l-0.20596,-0.06782c-1.54497,-0.52251 -2.47383,-1.27573 -3.71982,-2.39634c-5.94067,-5.34331 -10.20527,-12.16099 -12.19453,-19.91294c-0.09507,-0.37061 -0.30542,-0.7166 -0.59473,-0.93955c-1.84644,0.73198 0.2061,10.97607 0.87437,12.60132c0.57466,1.80278 1.1814,3.57144 2.02339,5.2812c2.65591,5.3937 6.48838,9.96167 11.0792,13.82021c0.59194,0.49761 3.73711,3.09946 4.06948,3.58066c-0.2373,0.24932 -0.43521,0.34775 -0.86089,0.32402c-8.23022,-0.4604 -16.42485,-5.39692 -22.41504,-10.83882c-0.11045,-0.10034 -0.24404,-0.25723 -0.31479,-0.33779c0.3769,0.12627 2.6521,1.71519 3.07236,2.11772c1.08325,1.03784 8.87329,5.40029 9.9939,4.14609c-0.17534,-0.98716 -2.56655,-4.02583 -3.30527,-5.19478c-3.61274,-5.71772 -6.06987,-11.84209 -6.7853,-18.61157c-0.62139,-5.87871 1.14331,-14.80649 4.90225,-19.4543z" fill="#fddf48"/><path d="M195.69873,99.31992c4.73584,-3.27085 9.56689,-6.70166 13.25098,-11.18437c4.58496,-5.57988 8.27637,-12.45938 9.04834,-19.72734c0.17578,-1.79326 0.1875,-3.59883 0.03516,-5.39429c-0.09082,-0.98364 -0.60498,-4.12031 -0.37061,-4.83794c0.86279,-2.63525 1.6626,-4.93271 2.18701,-7.71182c0.26514,-1.39556 0.45264,-2.80488 0.56104,-4.22153c0.07031,-0.93398 0.01025,-3.01641 0.26221,-3.73784l0.19922,-0.03896l0.38965,0.44707c3.5083,3.6189 7.12354,9.3022 9.60645,13.68164c0.28711,0.50625 1.52637,2.57681 1.68896,3.01128c2.74512,4.6311 4.45313,11.03628 5.23096,16.38677c0.28418,-0.43872 -0.10254,-6.21211 -0.03223,-7.51626c-0.06885,-1.26636 -0.34131,-2.79229 -0.53467,-4.06685c7.3125,10.49238 16.68164,31.03052 17.26318,43.98662c0.33838,1.77202 0.55664,11.26978 0.00586,12.73535c-0.41455,6.79922 -3.93457,16.8876 -8.19434,22.24292c-0.64014,1.10215 -1.39746,1.79985 -1.979,3.13198c3.98584,-2.86729 7.02393,-8.95532 8.98828,-13.37578l0.18018,-0.38584c1.2334,-3.96694 2.34082,-7.72031 2.77002,-11.86685c0.0791,-0.76113 0.20215,-1.65557 0.37061,-2.39165c0.47754,4.20996 0.42627,9.75088 0.3208,14.00815c-0.20361,8.3269 -0.86133,16.63696 -1.96729,24.89136c-0.32812,2.4126 -0.70752,5.66895 -1.17627,7.979c-0.36768,2.87695 -0.45264,3.96094 -0.2124,6.88184c-2.19727,1.62012 -3.07178,2.47559 -4.66699,4.69482c-0.16846,0.31348 -0.48486,0.69287 -0.70898,0.98584c-1.98486,-10.7959 -4.23926,-20.71729 -6.89502,-31.36523c-1.93799,-7.76602 -2.94434,-14.77222 -6.50537,-22.22197c-2.05518,-4.29858 -4.04883,-7.00386 -6.90234,-10.77246c-1.80322,-2.13794 -3.93311,-4.40376 -6.12744,-6.12393c6.35156,-1.20981 11.17822,-3.825 14.79346,-9.3772c0.20947,-0.32139 0.03955,-0.53525 -0.09961,-0.80552c-0.63721,0.84771 -1.51025,1.76396 -2.28662,2.47866c-3.22559,3.01406 -7.37402,4.85186 -11.77295,5.21631c-3.86133,0.35156 -4.61719,-0.47622 -8.02588,-2.01372c-1.69043,-0.74385 -3.43066,-1.37036 -5.20752,-1.87515c-5.23096,-1.48169 -8.18555,-1.52549 -13.48682,-1.74712z" fill="#edb253"/><path d="M221.26172,42.91289c3.5083,3.6189 7.12354,9.3022 9.60645,13.68164c0.28711,0.50625 1.52637,2.57681 1.68896,3.01128c0.05273,1.65527 0.92432,3.34175 1.42969,5.01489c3.18604,10.52871 2.47266,24.92417 -7.27441,31.84805c-6.33398,4.49897 -16.88086,2.84722 -24.33105,1.06597c1.05029,-1.07153 3.05713,-2.67217 4.2627,-3.71499c1.82373,-1.59609 3.57129,-3.27773 5.23535,-5.03936c9.19629,-9.81973 12.05566,-22.67285 10.45752,-35.73706c-0.2373,-1.94092 -1.51904,-8.83389 -1.0752,-10.13042z" fill="#fddf48"/><path d="M237.22119,64.40947c7.3125,10.49238 16.68164,31.03052 17.26318,43.98662c0.33838,1.77202 0.55664,11.26978 0.00586,12.73535c-0.41455,6.79922 -3.93457,16.8876 -8.19434,22.24292c-0.47607,-1.06055 2.31006,-9.45586 2.66016,-11.23755c1.46777,-7.49355 3.26953,-15.00396 2.60449,-22.7105c-0.2666,-3.08452 -1.06055,-6.13623 -1.76221,-9.14604c-0.46875,2.91094 -0.44092,5.72681 -0.95654,8.90229l-0.14209,-0.74502l-0.12598,0.16025c-0.13916,2.03862 -6.06299,14.61797 -8.31738,14.34624c-0.09668,-0.90513 1.65234,-3.48589 2.11523,-4.59448c5.47998,-13.12632 3.65771,-28.44785 -0.90088,-41.57036c-1.02246,-2.94419 -2.37451,-4.88394 -3.20361,-7.17524l-0.06592,-0.18721c0.01025,1.40449 0.19189,2.84971 0.25049,4.27061l-0.26514,-0.02344c-0.1084,-1.47495 -0.19336,-3.80376 -0.43066,-5.1876c-0.06885,-1.26636 -0.34131,-2.79229 -0.53467,-4.06685z" fill="#fef26c"/><path d="M253.27148,126.36196l-0.02051,-1.14976c-0.02637,-1.53809 0.36035,-2.65093 0.47168,-4.10786c0.28711,-3.78735 0.3457,-7.68589 0.19336,-11.48145c-0.03076,-0.75894 -0.07031,-1.44902 -0.00146,-2.19272c0.17139,0.35332 0.14941,0.67295 0.17139,1.06846l0.39844,-0.10254c0.33838,1.77202 0.55664,11.26978 0.00586,12.73535l-0.17871,-0.03516c-0.28271,0.98467 -0.8042,4.10801 -1.04004,5.26567z" fill="#fddf48"/><path d="M253.48535,132.74473c1.2334,-3.96694 2.34082,-7.72031 2.77002,-11.86685c0.0791,-0.76113 0.20215,-1.65557 0.37061,-2.39165c0.47754,4.20996 0.42627,9.75088 0.3208,14.00815c-0.20361,8.3269 -0.86133,16.63696 -1.96729,24.89136c-0.32812,2.4126 -0.70752,5.66895 -1.17627,7.979c-0.36768,2.87695 -0.45264,3.96094 -0.2124,6.88184c-2.19727,1.62012 -3.07178,2.47559 -4.66699,4.69482c-0.2373,-0.34863 -0.28857,-1.23779 -0.29883,-1.66992c-0.25781,-9.58594 2.23389,-19.64209 3.70166,-29.071c0.41602,-2.70483 0.71338,-5.42637 0.89063,-8.15713c0.08936,-1.23311 0.33838,-3.78472 0.08789,-4.91279z" fill="#fddf48"/><path d="M253.48535,132.74473c1.2334,-3.96694 2.34082,-7.72031 2.77002,-11.86685c0.0791,-0.76113 0.20215,-1.65557 0.37061,-2.39165c0.47754,4.20996 0.42627,9.75088 0.3208,14.00815c-0.20361,8.3269 -0.86133,16.63696 -1.96729,24.89136c-0.32812,2.4126 -0.70752,5.66895 -1.17627,7.979c-0.49219,-0.71484 -0.34424,-6.97705 -0.38525,-8.41406c-0.08643,-2.82422 -0.34863,-5.55029 -0.27832,-8.3833c0.12598,-5.15039 1.25244,-11.23198 0.80713,-16.32012c-0.13477,0.17695 -0.06738,0.07075 -0.18896,0.37134l-0.09961,0.25503z" fill="#fef26c"/><path d="M238.20117,69.41675l0.06592,0.18721c0.8291,2.29131 2.18115,4.23105 3.20361,7.17524c4.55859,13.12251 6.38086,28.44404 0.90088,41.57036c-0.46289,1.10859 -2.21191,3.68936 -2.11523,4.59448c2.25439,0.27173 8.17822,-12.30762 8.31738,-14.34624l0.12598,-0.16025l0.14209,0.74502c-0.89795,5.4 -2.90479,11.39502 -6.34277,15.70195c-1.24951,1.5646 -2.80811,3.54243 -4.28906,4.86445c-0.46436,-1.96479 -1.93652,-7.46836 -0.73975,-9.08042c7.63477,-10.27515 8.00684,-24.18984 4.69922,-36.12847c-0.98877,-3.5707 -2.57373,-7.21787 -3.71777,-10.85273c-0.05859,-1.4209 -0.24023,-2.86611 -0.25049,-4.27061z" fill="#fddf48"/><path d="M236.47852,97.26094c0.13184,-0.42539 0.28271,-0.69097 0.5332,-1.06055c1.21143,-1.79136 1.99512,-3.76567 2.92236,-5.69985c0.17725,-0.36973 0.46875,-0.67837 0.78369,-0.93882l0.2124,0.00293c0.62695,2.30537 -4.05469,12.30088 -5.37891,14.62939c-2.1958,3.86074 -4.49854,6.37441 -7.63916,9.37354c-1.80322,-2.13794 -3.93311,-4.40376 -6.12744,-6.12393c6.35156,-1.20981 11.17822,-3.825 14.79346,-9.3772c0.20947,-0.32139 0.03955,-0.53525 -0.09961,-0.80552z" fill="#e6a054"/><path d="M237.75586,68.47632c0.2373,1.38384 0.32227,3.71265 0.43066,5.1876c0.00146,1.30942 -0.03076,2.78774 0.03516,4.08237l-0.35156,-0.25649l-0.08203,-1.49722c0.28418,-0.43872 -0.10254,-6.21211 -0.03223,-7.51626z" fill="#591a0a"/><path d="M237.87012,77.48979l0.35156,0.25649c0.18604,1.47876 0.09229,3.49028 0.04102,5.00669l-0.11865,-0.03428l0.06738,0.31597l0.0542,-0.31611l-0.12158,-0.02329c-0.0835,-1.52812 -0.29736,-3.77681 -0.27393,-5.20547z" fill="#bf8d4b"/><path d="M31.30723,107.33921c1.13511,1.97095 2.32163,4.50234 3.51313,6.39668c2.5478,4.05044 6.46201,9.45952 9.87451,12.75308c7.11621,6.31509 14.87812,9.07998 24.46875,8.49961c2.03218,-0.10723 4.04634,-0.43916 6.00557,-0.9895c-1.4833,2.76738 -2.1104,4.55288 -3.15776,7.47686c-1.40361,5.32046 -2.11509,10.79897 -2.11685,16.30093c0.02051,4.65234 0.45322,9.43945 0.43447,14.10352c0.09565,2.82275 0.26221,8.68799 0.08687,11.48145c0.07822,7.26563 0.29839,14.12109 1.15386,21.37939c0.23159,2.09619 0.46318,3.80859 0.82573,5.88574c-2.92456,-2.37451 -4.45371,-4.93506 -8.24751,-6.92578c-2.05576,-1.54395 -4.31118,-2.18408 -6.72231,-2.93555c-0.87495,-0.16113 -1.75635,-0.271 -2.63804,-0.39258c-1.67666,0.00146 -2.78394,0.05566 -4.44902,0.34277c-4.63169,-8.20898 -8.25088,-14.99414 -11.46079,-24.02637c-2.29219,-6.45117 -3.69375,-12.02051 -5.45361,-18.55957c1.22095,1.41064 2.41567,2.84326 3.58374,4.29785c5.90581,5.7832 9.05332,6.62988 16.14565,9.4541c2.30698,0.71631 7.18623,2.31299 9.51211,1.87793c-1.70596,-0.59619 -3.49673,-1.1001 -5.26406,-1.71973c-6.78472,-2.47705 -14.22773,-7.27881 -18.63091,-13.00781c-10.77451,-14.01885 -9.76172,-35.11567 -7.46353,-51.69302z" fill="#edb253"/><path d="M31.30723,107.33921c1.13511,1.97095 2.32163,4.50234 3.51313,6.39668c2.5478,4.05044 6.46201,9.45952 9.87451,12.75308l-0.14971,0.34468c-0.87803,-0.07104 -2.56128,-1.62554 -3.20361,-2.2689l-0.00542,-0.25957c-2.48232,-2.2248 -4.88745,-4.80103 -6.59209,-7.64912c-0.37852,-0.63252 -0.94146,-1.56563 -1.63389,-1.81875c-0.25444,0.06401 -0.41982,0.10225 -0.68115,0.1519c-0.49731,-0.81914 -0.53203,-2.63467 -0.92607,-3.37896c-0.13037,1.95703 1.0645,3.92124 1.12456,5.95474c0.46655,15.79468 4.44595,33.21724 15.11104,45.3769c1.60752,1.83252 7.74272,7.38428 9.86821,8.58398l-0.20508,0.51416c-6.78472,-2.47705 -14.22773,-7.27881 -18.63091,-13.00781c-10.77451,-14.01885 -9.76172,-35.11567 -7.46353,-51.69302z" fill="#fef26c"/><path d="M70.32905,171.88037c-0.52397,-0.45557 -2.20122,-2.96777 -2.69546,-3.70605c-2.8043,-4.19092 -5.78511,-8.23682 -7.95674,-12.81885c-1.23354,-2.60303 -2.44644,-7.13965 -1.51904,-10.04004c0.03413,-0.10679 0.28945,-0.62593 0.38628,-0.65376c3.49995,-1.00459 7.42412,-1.61895 10.97402,-2.47896c0.95068,-0.23027 1.5394,-0.56528 2.26318,-0.87905l0.23013,0.17227c-1.40361,5.32046 -2.11509,10.79897 -2.11685,16.30093c0.02051,4.65234 0.45322,9.43945 0.43447,14.10352z" fill="#fddf48"/><path d="M57.60674,171.52588c-2.12549,-1.19971 -8.26069,-6.75146 -9.86821,-8.58398c-10.66509,-12.15967 -14.64448,-29.58223 -15.11104,-45.3769c-0.06006,-2.0335 -1.25493,-3.99771 -1.12456,-5.95474c0.39404,0.74429 0.42876,2.55981 0.92607,3.37896c0.26133,-0.04966 0.42671,-0.08789 0.68115,-0.1519c0.69243,0.25312 1.25537,1.18623 1.63389,1.81875c1.70464,2.8481 4.10977,5.42432 6.59209,7.64912l0.00542,0.25957c-1.43013,-0.71836 -4.51011,-4.5583 -5.5478,-5.85674c-0.88594,-1.10874 -1.59346,-2.55835 -2.63188,-3.65669l-0.18062,0.07588c-0.39287,1.34619 0.21138,4.27207 0.39478,5.73779c0.91729,7.41606 2.72227,14.55132 5.68198,21.42759c1.02246,2.37539 1.82578,4.53457 3.13154,6.8915c5.37979,9.70898 13.32129,18.24316 22.69277,24.19629c0.26704,0.16992 1.08794,0.51855 1.05425,0.78076l-0.23481,-0.05566c-1.57837,0.20361 -1.91191,-0.33545 -3.03604,-0.3457c-1.70596,-0.59619 -3.49673,-1.1001 -5.26406,-1.71973z" fill="#fddf48"/><path d="M61.05146,182.53857c0.92417,-0.15234 1.81523,-0.14648 2.80957,-0.33105c2.32749,-0.43066 4.29639,-1.51611 6.40093,-2.55469c-0.00264,0.72217 -0.10239,3.27393 0.15396,3.70898c0.07822,7.26563 0.29839,14.12109 1.15386,21.37939l-0.1314,0.44238l-0.18721,0.00146c-4.36641,-7.07227 -10.20571,-13.72412 -10.19971,-22.64648z" fill="#fddf48"/><path d="M33.42422,158.12988c1.22095,1.41064 2.41567,2.84326 3.58374,4.29785c-0.0082,1.21436 2.03745,6.16846 2.60625,7.48828c1.05645,2.67041 1.75869,5.45508 2.78218,8.14453c3.01904,7.97314 7.22153,15.44678 12.46582,22.16895l-0.07456,0.14355c-1.67666,0.00146 -2.78394,0.05566 -4.44902,0.34277c-4.63169,-8.20898 -8.25088,-14.99414 -11.46079,-24.02637c-2.29219,-6.45117 -3.69375,-12.02051 -5.45361,-18.55957z" fill="#fef26c"/><path d="M37.00796,162.42773c5.90581,5.7832 9.05332,6.62988 16.14565,9.4541c-1.98442,0.96094 -12.06738,-4.36523 -14.32998,-5.21191l-0.19453,-0.07031c0.2748,0.90088 0.76582,2.12256 1.10098,3.03223c0.82764,1.65967 1.35981,3.32666 2.13823,4.94971c0.80435,1.67725 1.88408,3.42188 2.73062,5.09619c1.65117,3.2666 3.34834,6.30908 5.23081,9.44238c1.37417,2.33496 2.82144,4.62598 4.33975,6.87012c0.57407,0.83936 2.96396,4.12793 3.2562,4.77539c-0.87495,-0.16113 -1.75635,-0.271 -2.63804,-0.39258l0.07456,-0.14355c-5.24429,-6.72217 -9.44678,-14.1958 -12.46582,-22.16895c-1.02349,-2.68945 -1.72573,-5.47412 -2.78218,-8.14453c-0.5688,-1.31982 -2.61445,-6.27393 -2.60625,-7.48828z" fill="#fddf48"/><path d="M48.58784,126.7311c-1.46074,-1.06494 -2.78057,-2.88354 -3.82808,-4.28438c-2.06382,-2.75991 -3.02402,-4.9897 -3.1292,-8.4457c-0.04614,-1.51245 -0.43374,-3.35376 -0.44106,-4.91587c-0.69023,-13.6333 3.86587,-28.83164 10.9585,-40.38896c3.59531,-5.8582 9.25166,-12.74121 13.84849,-17.87109l-0.40049,4.8687c0.00513,0.54478 0.01714,1.07153 -0.01479,1.6166c0.03252,2.7145 0.08423,5.20898 0.54888,7.89844c0.22251,1.28745 0.90674,3.23291 0.92681,4.4209c0.06738,3.99375 -0.05288,7.42148 0.61538,11.41055c1.37124,6.55444 3.62622,11.81719 7.2416,17.44907c4.12354,5.34463 6.15645,7.5249 11.92178,11.14893l0.29854,-0.40415c-3.80376,-2.94214 -8.34697,-7.73818 -10.62231,-12.10195c0.88374,0.39771 2.68916,2.62295 3.67515,3.40752c7.18652,5.71846 16.22417,7.98604 25.26489,6.44854c4.24072,-0.72114 6.84126,-1.34063 11.1293,-0.49731c1.26123,0.248 2.1063,-0.34336 3.91816,0.28433c-12.99141,2.82949 -27.56089,6.55986 -37.42178,16.08823c-3.37412,3.26045 -4.42002,5.89688 -7.01338,9.23188c-5.88618,2.67729 -16.71445,1.87954 -22.1354,-1.62246c-1.51421,-0.73052 -4.20806,-2.51895 -5.34097,-3.7418z" fill="#e6a054"/><path d="M48.58784,126.7311c-1.46074,-1.06494 -2.78057,-2.88354 -3.82808,-4.28438c-2.06382,-2.75991 -3.02402,-4.9897 -3.1292,-8.4457c-0.04614,-1.51245 -0.43374,-3.35376 -0.44106,-4.91587c-0.69023,-13.6333 3.86587,-28.83164 10.9585,-40.38896c3.59531,-5.8582 9.25166,-12.74121 13.84849,-17.87109l-0.40049,4.8687c0.00513,0.54478 0.01714,1.07153 -0.01479,1.6166c0.03252,2.7145 0.08423,5.20898 0.54888,7.89844c0.22251,1.28745 0.90674,3.23291 0.92681,4.4209c0.06738,3.99375 -0.05288,7.42148 0.61538,11.41055c1.37124,6.55444 3.62622,11.81719 7.2416,17.44907c0.0627,0.3624 0.08452,0.3999 0.05215,0.76084c-1.27046,-0.35273 -4.28892,-4.36758 -5.09019,-5.48994c-4.21406,-5.902 -5.97847,-12.52881 -7.11533,-19.57529c-0.64937,-4.02437 -0.59502,-7.61147 -0.85679,-11.62983l-0.06343,0.23145c-0.79365,2.81558 -2.4208,5.31563 -3.09756,8.2853c-3.74854,16.44741 -0.46553,39.54932 15.81738,48.20186c2.73384,1.45283 1.94912,2.51851 -0.59077,3.7938c-3.71704,1.86636 -8.71479,1.90459 -12.59399,0.57305c-6.69727,-2.15508 -10.01045,-8.67275 -12.68188,-14.66323c-0.30278,-0.67896 -0.70049,-2.48027 -1.15195,-2.89614l-0.24858,0.06768c-2.15786,3.78486 1.42456,15.71279 3.90073,19.38721c0.45864,0.68057 2.80708,4.38428 2.86025,4.83281l-0.1251,0.104c-1.51421,-0.73052 -4.20806,-2.51895 -5.34097,-3.7418z" fill="#fddf48"/><path d="M48.58784,126.7311c-1.46074,-1.06494 -2.78057,-2.88354 -3.82808,-4.28438c-2.06382,-2.75991 -3.02402,-4.9897 -3.1292,-8.4457c-0.04614,-1.51245 -0.43374,-3.35376 -0.44106,-4.91587c-0.69023,-13.6333 3.86587,-28.83164 10.9585,-40.38896c3.59531,-5.8582 9.25166,-12.74121 13.84849,-17.87109l-0.40049,4.8687c-0.22017,-0.59897 -0.18091,-0.91626 -0.17974,-1.55889c-1.10771,0.38306 -5.0666,8.12256 -5.64917,9.33428c-7.17935,14.9332 -9.65859,31.85112 -4.60854,47.84004c0.15044,0.47681 0.00952,0.63428 -0.39053,0.83364c-3.51489,-0.38687 -7.15767,-12.72759 -8.25498,-15.70239c-2.20942,6.59839 -1.51216,16.83882 0.01216,23.65078c0.39243,1.754 1.87705,5.27388 2.06265,6.63984z" fill="#fef26c"/><path d="M67.67227,81.04028c-0.57363,-0.62271 -0.95098,-2.01973 -1.19341,-2.80635c-1.82461,-5.92207 -2.58604,-12.10913 -1.11431,-18.19849c0.16626,-0.68774 -0.07412,-2.17529 0.21665,-2.72505c0.03252,2.7145 0.08423,5.20898 0.54888,7.89844c0.22251,1.28745 0.90674,3.23291 0.92681,4.4209c0.06738,3.99375 -0.05288,7.42148 0.61538,11.41055z" fill="#e6a054"/><path d="M87.13418,109.23413c0.86924,0.57671 1.2334,0.86001 2.01387,1.55347c-0.80947,-0.36797 -1.55479,-0.67969 -2.3124,-1.14932z" fill="#591a0a"/><path d="M249.12158,183.61377c2.14746,-3.55664 4.23779,-8.02441 8.6543,-9.14795c1.52051,-0.38672 3.15088,-0.07617 4.42969,0.81299c4.31396,3 5.84766,9.38525 6.7793,14.16357c2.47705,12.70166 1.90283,24.46143 -5.78906,35.38916c-1.72559,2.45215 -3.57275,4.68311 -6.08057,6.42334c-1.93506,1.3418 -4.02246,1.3418 -6.24756,1.1792c0.84375,-7.62305 0.96533,-14.90039 1.01514,-22.53955c0.01172,-1.88232 1.68604,-3.42627 1.95117,-5.31152c0.07617,-0.53467 0.22705,-1.26416 0.69141,-1.56445c3.26221,1.08984 2.57666,8.02881 3.4292,9.28564l0.23877,-0.16553c1.7373,-3.35156 2.12842,-8.29102 0.33398,-11.71729c-0.66064,-1.2627 -1.58496,-1.95703 -2.74219,-2.71436c0.70605,-2.95605 3.01758,-7.95264 4.65967,-10.41943c0.86865,-1.30371 2.15918,-3.52295 3.78076,-2.58691c0.44824,0.25928 0.68701,0.38379 1.10742,0.29736l0.23584,-0.44678c-2.40088,-5.81104 -6.51562,-0.9668 -8.83887,1.89844c-1.38867,2.38184 -2.47998,4.229 -3.56689,6.78223c-0.87891,2.05957 -1.46631,4.29639 -2.28369,6.28418c-0.07764,-0.78955 -0.39404,-3.50977 -0.35449,-4.1543c-0.48926,-3.68994 -1.15137,-8.09473 -1.40332,-11.74805z" fill="#e8b5a4"/><path d="M255.78516,197.70703c0.70605,-2.95605 3.01758,-7.95264 4.65967,-10.41943c0.86865,-1.30371 2.15918,-3.52295 3.78076,-2.58691c0.44824,0.25928 0.68701,0.38379 1.10742,0.29736l0.23584,-0.44678c0.91553,3.4541 0.74707,6.39551 1.39746,9.36475c-5.97217,6.9375 -0.63281,16.47656 -10.2085,25.05176c-0.54639,2.28369 -1.46484,9.43359 -0.8877,11.61914c0.45703,0.42773 0.63574,0.44678 1.24512,0.66797c-1.93506,1.3418 -4.02246,1.3418 -6.24756,1.1792c0.84375,-7.62305 0.96533,-14.90039 1.01514,-22.53955c0.01172,-1.88232 1.68604,-3.42627 1.95117,-5.31152c0.07617,-0.53467 0.22705,-1.26416 0.69141,-1.56445c3.26221,1.08984 2.57666,8.02881 3.4292,9.28564l0.23877,-0.16553c1.7373,-3.35156 2.12842,-8.29102 0.33398,-11.71729c-0.66064,-1.2627 -1.58496,-1.95703 -2.74219,-2.71436z" fill="#c88588"/><path d="M250.5249,195.36182l0.12744,-0.17432c0.0498,-2.85791 3.82617,-7.14404 6.07764,-8.73779c-1.38867,2.38184 -2.47998,4.229 -3.56689,6.78223c-0.87891,2.05957 -1.46631,4.29639 -2.28369,6.28418c-0.07764,-0.78955 -0.39404,-3.50977 -0.35449,-4.1543z" fill="url(#color-2)"/><path d="M54.78765,200.37305c0.88169,0.12158 1.76309,0.23145 2.63804,0.39258c2.41113,0.75146 4.66655,1.3916 6.72231,2.93555c-0.96768,0.03809 -2.83579,-1.4209 -3.9123,-1.77686c-1.43203,-0.47168 -3.39565,-0.84961 -4.86973,-1.31836c-0.21899,-0.06885 -1.81523,0.1875 -2.12446,0.23877l1.60796,-0.05859c-0.98452,0.18311 -3.77725,0.60352 -4.51084,-0.07031c1.66509,-0.28711 2.77236,-0.34131 4.44902,-0.34277z" fill="#17161d"/></g></svg></svg>