<svg xmlns="http://www.w3.org/2000/svg" width="300" height="300" viewBox="0 0 300 300"><svg xmlns="http://www.w3.org/2000/svg"><defs><linearGradient id="b" x1="292.349" x2="182.808" y1="155.046" y2="84.653" gradientUnits="userSpaceOnUse"><stop offset="0" stop-color="#35384c"/><stop offset="1" stop-color="#4f4159"/></linearGradient><linearGradient id="c" x1="200.467" x2="185.682" y1="47.984" y2="14.476" gradientUnits="userSpaceOnUse"><stop offset="0" stop-color="#9e82a2"/><stop offset="1" stop-color="#d2bcd9"/></linearGradient><linearGradient id="d" x1="192.384" x2="181.6" y1="205.894" y2="195.486" gradientUnits="userSpaceOnUse"><stop offset="0" stop-color="#607c80"/><stop offset="1" stop-color="#8aadb1"/></linearGradient><linearGradient id="e" x1="80.8" x2="43.001" y1="179.493" y2="245.811" gradientUnits="userSpaceOnUse"><stop offset="0" stop-color="#e1f4c9"/><stop offset="1" stop-color="#e8f7e7"/></linearGradient><linearGradient id="f" x1="62.077" x2="61.055" y1="270.041" y2="271.671" gradientUnits="userSpaceOnUse"><stop offset="0" stop-opacity=".918"/><stop offset="1"/></linearGradient><clipPath id="a"><path fill="none" d="M0 0h299.991v299.991H0z"/></clipPath></defs><g fill="none" stroke-miterlimit="10" clip-path="url(#a)" font-family="none" font-size="none" font-weight="none" style="mix-blend-mode:normal" text-anchor="none"><path fill="#000" d="M140.247 0h19.657c2.288.591 6.252.682 8.755 1 6.002.72 11.95 1.826 17.808 3.313a152 152 0 0 1 90.777 66.538 151.5 151.5 0 0 1 20.843 56.235 145 145 0 0 1 1.317 10.503c.133 1.649.324 5.973.596 7.334v11.653c-.28 2.594-.333 5.373-.564 8.01a167 167 0 0 1-2.11 15.256 146.23 146.23 0 0 1-52.568 87.693 151.7 151.7 0 0 1-61.853 29.396 130 130 0 0 1-12.548 2.15c-1.333.17-6.403.644-7.342.919H136.11c-1.16-.34-5.566-.725-7.013-.904-4.087-.505-7.57-1.195-11.582-2.045a149 149 0 0 1-47.727-19.254c-1.367-.846-6.067-3.73-7.124-4.756l.256-.252c.236-.987-.144-.886.456-1.909l-.193-.167c-1.373-.312-3.547-.924-4.873-.8-.91-.538-2.359-1.806-3.232-2.503a137 137 0 0 1-9.115-7.944A145.5 145.5 0 0 1 3.904 185.49a144 144 0 0 1-2.996-17.97q-.274-2.788-.46-5.583c-.093-1.433-.087-3.147-.448-4.521v-12.076c.356-1.407.5-5.717.646-7.472.336-3.97.838-7.923 1.506-11.85a150 150 0 0 1 24.373-60.859 151.86 151.86 0 0 1 88.216-61.14 147 147 0 0 1 16.388-3.04c2.6-.318 6.51-.471 8.903-.935zm12.189 195.67c12.246-1.17 22.567-6.625 30.419-16.128a45.2 45.2 0 0 0 10.062-32.967c-2.1-21.632-19.072-39.884-41.432-40.647-1.122-.039-2.534-.05-3.646.053a42.6 42.6 0 0 0-29.183 14.187c-26.16 29.082-5.952 76.499 33.78 75.503"/><path fill="#f3f7ce" d="M142.349 11.928c1.142-.095 2.487-.077 3.649-.09l.011 82.896c-3.733.235-7.962 1.18-11.526 2.325a56.65 56.65 0 0 0-38.012 42.689c-1.525 7.872-1.104 17.118-1.102 25.233l-.006 29.656c.002 4.116.653 12.416-1.11 15.779-1.126 2.147-3.068 3.892-5.406 4.6a9.03 9.03 0 0 1-6.966-.805 9.14 9.14 0 0 1-4.322-5.277c-.763-2.444-.512-6.362-.513-9.03l.006-17.031c.003-4.284.319-11.226-.79-15.12a18.55 18.55 0 0 0-8.798-11.189c-8.78-4.882-18.546-.634-23.22 7.748-2.932 5.572-2.413 10.819-2.39 16.886.008 1.94.098 3.794-.334 5.706a12.76 12.76 0 0 1-2.788 5.439 12.9 12.9 0 0 1-9.032 4.372c-3.62.219-6.465-.95-9.188-3.301-4.03-3.478-4.758-8.256-5.727-13.237a152 152 0 0 1-2.73-21.262A139.24 139.24 0 0 1 47.313 58.081a137.54 137.54 0 0 1 95.036-46.153"/><path fill="#fefefd" d="M126.855 20.702c4.975-.734 7.783 3.884 5.78 7.99a4.77 4.77 0 0 1-1.7 1.92c-1.783 1.14-7.886 2.322-10.24 2.92a113.8 113.8 0 0 0-31.014 12.79 170 170 0 0 0-5.29 3.327c-2.318 1.518-4.134 3.36-6.778 4.31l-.155.037a4.9 4.9 0 0 1-3.719-.803c-3.277-2.28-3.22-7.224.028-9.486 1.763-1.229 3.441-2.48 5.243-3.68a126.7 126.7 0 0 1 39.178-17.411c2.718-.695 5.902-1.513 8.667-1.914M59.636 56.886c1.006-.067 1.806.046 2.719.472a5.53 5.53 0 0 1 2.955 3.36 5.74 5.74 0 0 1-.424 4.511c-.993 1.8-3.385 3.751-4.782 5.363-3.36 3.803-6.5 7.781-9.306 12.012-1.795 2.709-2.445 4.313-5.708 5.236-2.905.241-5.37-1.72-5.908-4.56-.566-2.632 1.195-4.875 2.596-6.927 4.136-6.04 8.792-11.776 13.926-16.998 1.197-1.216 2.207-2.136 3.932-2.47"/><path fill="#fbca6c" d="M46.743 116.577a8.697 8.697 0 1 1 2.06 17.27 8.697 8.697 0 0 1-2.06-17.27"/><path fill="#72d3c9" d="M85.973 95.853a8.323 8.323 0 1 1 2.024 16.523 8.323 8.323 0 0 1-2.024-16.523"/><path fill="#ace8cf" d="M113.684 50.183a8.244 8.244 0 1 1 .482 16.48 8.244 8.244 0 0 1-.482-16.48"/><path fill="url(#b)" d="M154.104 11.8c30.039.294 61.153 12.89 84.03 32.129 4.507 3.646 8.22 7.286 12.171 11.48a139.3 139.3 0 0 1 37.056 81.114c1.055 9.95.86 17.03.424 26.83-4.659-2.293-8.054-2.893-13.149-1.228-4.8 1.567-8.658 5.022-10.841 9.596a21 21 0 0 0-1.903 7.126c-.741 8.044 2.123 19.885-7.621 23.467-5.741 2.11-10.949-1.311-12.696-6.858-.995-3.162-.766-7.021-.784-10.34l-.03-17.257c.014-11.395.881-23.455-10.823-29.624-9.407-4.958-18.996 1.943-25.393 8.394a58.52 58.52 0 0 0-20.855-39.885c-3.488-2.879-6.961-5.021-10.97-7.066-6.027-2.771-11.97-4.447-18.611-4.964z"/><path fill="#765b7e" d="M154.104 11.8c30.039.294 61.153 12.89 84.03 32.129-1.421 1.192-3.175 2.592-4.512 3.833h-.092c-1.582 1.583-6.405 5.748-8.285 7.166l.022.1c-1.506 1.066-3.579 2.932-5.03 4.177l-7.842 6.69-27.584 23.5c-3.752 3.183-8.335 7.383-12.091 10.283-6.027-2.771-11.97-4.447-18.611-4.964z"/><path fill="url(#c)" d="M209.121 44.264a114 114 0 0 0-24.29-10.176c-3.688-1.075-7.46-1.927-11.209-2.763-.939-.21-1.94-.498-2.776-.977-2.54-1.454-3.167-5.268-1.715-7.68a5.4 5.4 0 0 1 3.299-2.443c1.99-.492 6.123.657 8.204 1.167a129.7 129.7 0 0 1 38.463 16.041l-.613-.028c-.568.532-1.916 2.007-2.395 2.422-1.098.953-5.746 4.17-6.968 4.437"/><path fill="#967c9c" d="M209.121 44.264c1.222-.267 5.87-3.484 6.968-4.437.48-.415 1.827-1.89 2.395-2.422l.613.028c4.333 2.44 10.538 7.153 14.433 10.329-1.582 1.583-6.405 5.748-8.285 7.166a45 45 0 0 1-1.91-1.41c-4.527-3.481-9.27-6.398-14.214-9.254"/><path fill="#fbca6c" d="M171.813 36.48a9.052 9.052 0 1 1 2.827 17.882 9.052 9.052 0 0 1-2.827-17.882"/><path fill="#765b7e" d="M233.53 47.762h.092c5.45 4.594 10.296 8.853 15.032 14.251 1.373 1.565 3.05 3.197 4.115 5.003-.73-.787-3.83-4.196-4.17-4.787-2.023.985-4.16 1.53-5.93 2.42-1.064.533-1.01 2.218-3.25 2.65.266.732 1.836 1.85 2.343 2.49.258.326.551.918.737 1.299-.366-.313-.883-1.069-1.27-1.483-.91-.973-1.84-1.98-2.783-2.92-3.825-3.815-8.782-8.565-13.18-11.656l-.021-.1c1.88-1.42 6.703-5.584 8.285-7.167"/><path fill="#fbca6c" d="M232.774 75.766a9.004 9.004 0 1 1 1.57 17.94 9.004 9.004 0 0 1-1.57-17.94"/><path fill="#72d3c9" d="M259.371 117.792a8.96 8.96 0 0 1 9.844 7.978 8.96 8.96 0 1 1-9.844-7.979"/><path fill="#3d5a5e" d="M154.143 206.943c19.883-1.852 38.062-15.5 46.437-33.48 3.21-6.585 3.443-12.417 8.61-18.203 7.463-8.352 19.235-10.884 22.605 2.471.912 3.614.528 9.18.55 13.108l.124 11.19c.01 4.296-.055 8.745.132 13.025.396 1.46.585 2.627 1.1 4.092 1.73 4.916 4.875 8.99 9.424 11.592 3.99 2.284 8.739 3.109 13.214 1.915 4.62-1.23 8.328-4.346 10.639-8.514a21 21 0 0 0 2.549-7.853c.557-4.828-.098-9.965.593-14.745.864-5.98 7.524-10.355 13.143-7.304a4.13 4.13 0 0 1 1.703 1.63c-.132 1.253-.249 2.554-.461 3.792-5.23 30.616-22.422 58.132-46.338 77.483a139.88 139.88 0 0 1-84.021 30.577c-.145-12.16-.002-24.4-.027-36.569l-.032-13.772c-.004-2.089-.095-5.433.037-7.459-.206-7.285.02-15.602.019-22.976"/><path fill="#273142" d="M232.601 195.054c.396 1.46.585 2.627 1.1 4.092 1.73 4.916 4.875 8.99 9.424 11.592 3.99 2.284 8.739 3.109 13.214 1.915 4.62-1.23 8.328-4.346 10.639-8.514a21 21 0 0 0 2.549-7.853c.557-4.828-.098-9.965.593-14.745.864-5.98 7.524-10.355 13.143-7.304a4.13 4.13 0 0 1 1.703 1.63c-.132 1.253-.249 2.554-.461 3.792-5.23 30.616-22.422 58.132-46.338 77.483a139.88 139.88 0 0 1-84.021 30.577c-.146-12.16-.002-24.4-.027-36.569l-.032-13.772c-.004-2.089-.095-5.433.037-7.459.178 1.665.093 4.566.09 6.316l.031 9.786-.012 36.206c1.172-.513 3.444-1.211 4.725-1.652a203 203 0 0 0 8.182-3.016 166 166 0 0 0 29.367-15.498A147.9 147.9 0 0 0 227.4 234.33c6.17-7.238 5.075-5.904 5.08-15.188l-.027-16.677c-.005-1.698-.194-5.943.15-7.41"/><path fill="url(#d)" d="M207.032 175.891c.142 1.018-.56 3.93-.832 4.99a58.2 58.2 0 0 1-10.179 21.14c-7.104 9.31-18.252 17.45-30.136 19.78-1.376.27-2.353-.136-3.406-1-1.141-1.39-1.573-2.715-.864-4.5.18-.449.877-1.378 1.325-1.589 2.518-1.182 5.388-1.636 7.972-2.714 2.074-.823 3.964-1.474 5.953-2.56 9.588-5.234 18.114-12.685 24.034-21.907 2.42-3.77 4.288-7.619 6.133-11.64"/><path fill="#ace8cf" d="M105.615 181.743c.92 1.41 1.899 2.82 2.834 4.225 1.816 2.276 3.473 4.384 5.547 6.44a51.8 51.8 0 0 0 23.698 13.16c2.982.726 5.353.932 8.278 1.43q.048 3.965.012 7.93l-.02 48.341c-.013 8.08.1 16.398-.03 24.454a138.6 138.6 0 0 1-62.705-16.545c-6.719-3.457-15.764-9.37-21.542-14.157 1.234-2.348 12.78-11.397 15.173-13.56 3.759-3.394 8.021-6.974 11.411-10.977-4.794-.56-9.967-3.582-13.302-7.012-1.508-1.552-3.77-4.842-3.694-7.092 3.953 4.946 9.024 8.242 15.53 8.237a18.45 18.45 0 0 0 13-5.42c6.674-6.715 5.795-14.694 5.8-23.294z"/><path fill="#72d3c9" d="M83.23 271.178c1.782-1.52 6.219-4.329 8.338-5.786a238 238 0 0 0 11.747-8.699c16.02-12.504 29.14-25.538 42.503-40.863.017-.368.008-.561.166-.902l-.02 48.341c-.013 8.08.1 16.398-.03 24.454a138.6 138.6 0 0 1-62.705-16.545"/><path fill="#8dcdb2" d="M105.615 181.743c.92 1.41 1.899 2.82 2.834 4.225-.345 1.446-.163 5.007-.17 6.649q-.028 5.978.032 11.957c.037 2.649.224 5.923.013 8.489-.499 6.097-3.1 12.051-8.063 15.803a18 18 0 0 1-9.235 3.57c-.931.077-1.83.002-2.755.048-4.794-.56-9.967-3.582-13.302-7.012-1.508-1.552-3.77-4.842-3.694-7.092 3.952 4.946 9.024 8.242 15.53 8.237a18.45 18.45 0 0 0 13-5.42c6.674-6.715 5.795-14.694 5.8-23.294z"/><path fill="url(#e)" d="M23.367 207.012c5.788 1.012 10.257.674 15.39-1.823 10.82-5.263 14.393-15.915 13.533-27.243-.125-1.654-.064-5.368.549-6.91 2.666-6.71 10.73-7.036 13.564-.09.832 2.492.544 6.199.544 8.94l.007 16.536c0 8.911-.797 14.157 4.32 21.958-.076 2.25 2.187 5.54 3.695 7.092 3.335 3.43 8.508 6.452 13.302 7.012-3.39 4.003-7.652 7.583-11.411 10.977-2.393 2.163-13.939 11.212-15.173 13.56A130.4 130.4 0 0 1 25.08 210.78c-.605-1.101-1.204-2.592-1.714-3.767"/><path fill="#ace8cf" d="M23.367 207.012c5.788 1.012 10.257.674 15.39-1.823 10.82-5.263 14.393-15.915 13.533-27.243-.125-1.654-.064-5.368.549-6.91 2.666-6.71 10.73-7.036 13.564-.09-5.04-2.048-9.173-.33-11.179 4.775-1.492 3.799-.71 8.199-.9 12.188-.093 9.52-3.61 17.866-12.51 22.153-3.648 1.756-8.314 2.402-12.29 1.608-1.066-.214-3.496-.9-4.443-.89-.605-1.102-1.204-2.593-1.714-3.768"/><path fill="url(#f)" d="M58.309 269.912c1.326-.123 3.5.49 4.873.801l.193.167c-.6 1.023-.22.922-.456 1.91l-.256.251c-1.25-.776-3.113-2.22-4.354-3.129"/></g></svg></svg>